<svg width="64" height="64" viewBox="0 0 64 64" fill="none" xmlns="http://www.w3.org/2000/svg">
<path d="M62 5H2C0.896 5 0 5.896 0 7V57C0 58.104 0.896 59 2 59H62C63.104 59 64 58.104 64 57V7C64 5.896 63.104 5 62 5ZM60 9V17H4V9H60ZM4 55V21H60V55H4Z" fill="#A2A5B9"/>
<path d="M10 15C10.52 15 11.04 14.79 11.41 14.41C11.79 14.04 12 13.52 12 13C12 12.48 11.79 11.96 11.41 11.58C10.67 10.84 9.33 10.84 8.58 11.59C8.21 11.96 8 12.47 8 13C8 13.53 8.21 14.04 8.59 14.42C8.96 14.79 9.479 15 10 15Z" fill="#A2A5B9"/>
<path d="M16 15C16.52 15 17.04 14.79 17.42 14.41C17.79 14.04 18 13.52 18 13C18 12.48 17.79 11.96 17.41 11.58C16.67 10.84 15.33 10.84 14.58 11.59C14.21 11.96 14 12.48 14 13C14 13.52 14.21 14.04 14.59 14.42C14.96 14.79 15.479 15 16 15Z" fill="#A2A5B9"/>
<path d="M22 15C22.53 15 23.04 14.79 23.41 14.41C23.79 14.04 24 13.53 24 13C24 12.48 23.79 11.96 23.41 11.58C22.67 10.84 21.33 10.84 20.58 11.59C20.21 11.96 20 12.48 20 13C20 13.53 20.21 14.04 20.59 14.41C20.96 14.79 21.479 15 22 15Z" fill="#A2A5B9"/>
<path d="M31 25H10C8.896 25 8 25.896 8 27C8 28.104 8.896 29 10 29H31C32.104 29 33 28.104 33 27C33 25.896 32.104 25 31 25Z" fill="#A2A5B9"/>
<path d="M31 33H10C8.896 33 8 33.896 8 35C8 36.104 8.896 37 10 37H31C32.104 37 33 36.104 33 35C33 33.896 32.104 33 31 33Z" fill="#A2A5B9"/>
<path d="M31 41H10C8.896 41 8 41.896 8 43C8 44.104 8.896 45 10 45H31C32.104 45 33 44.104 33 43C33 41.896 32.104 41 31 41Z" fill="#A2A5B9"/>
<path d="M54 25H39C37.896 25 37 25.896 37 27V43C37 44.104 37.896 45 39 45H54C55.104 45 56 44.104 56 43V27C56 25.896 55.104 25 54 25ZM52 41H41V29H52V41Z" fill="#A2A5B9"/>
</svg>